<svg width="69" height="23" viewBox="0 0 69 23" fill="none" xmlns="http://www.w3.org/2000/svg">
<path d="M53.4983 13.5008V8C56.5364 8 58.9991 10.4627 58.9991 13.5008H53.4983Z" fill="#E2FFD7"/>
<path d="M53.4983 13.5008L56.2487 18.2638C57.0845 17.7806 57.7786 17.0861 58.2614 16.25C58.7441 15.4139 58.9985 14.4663 58.9991 13.5008H53.4983Z" fill="#4ECB71"/>
<path d="M56.2487 18.2638L53.4983 13.5008V8C50.4606 8.0011 47.9989 10.464 48 13.5016C48.0011 16.5393 50.464 19.0011 53.5022 19C54.4663 18.9996 55.4136 18.7455 56.2487 18.2638Z" fill="#4ECB71"/>
<path d="M25.5 3.03906C25.8841 2.71354 26.3008 2.55078 26.75 2.55078C27.1992 2.55078 27.5703 2.69076 27.8633 2.9707C28.1562 3.24414 28.3027 3.63151 28.3027 4.13281C28.3027 4.63411 28.1139 5.05729 27.7363 5.40234C27.3587 5.74089 26.9258 5.91016 26.4375 5.91016C25.9557 5.91016 25.5749 5.76042 25.2949 5.46094C25.0215 5.16146 24.8848 4.77734 24.8848 4.30859C24.8848 3.83984 25.0898 3.41667 25.5 3.03906ZM25.2363 10.1777C25.2363 9.68294 25.0638 9.38997 24.7188 9.29883C24.4974 9.22721 24.1849 9.17513 23.7812 9.14258C23.7357 8.94727 23.7129 8.80078 23.7129 8.70312C23.7129 8.59896 23.7161 8.51758 23.7227 8.45898C24.6602 7.93164 25.8353 7.66797 27.248 7.66797C27.4759 7.66797 27.6452 7.67122 27.7559 7.67773C27.9382 7.96419 28.0651 8.52409 28.1367 9.35742C28.1888 9.73503 28.2148 10.3047 28.2148 11.0664C28.2148 11.8281 28.1888 14.1458 28.1367 18.0195C27.4141 18.1432 26.8118 18.2051 26.3301 18.2051C25.8548 18.2051 25.4512 18.1432 25.1191 18.0195C25.2363 16.4505 25.2949 15.0475 25.2949 13.8105C25.2949 12.5671 25.2754 11.3561 25.2363 10.1777Z" fill="#E2FFD7"/>
<path d="M36.448 11.4473C36.448 10.334 36.1941 9.77734 35.6863 9.77734C35.3152 9.77734 34.9604 9.88477 34.6219 10.0996C34.2833 10.3079 33.9188 10.6009 33.5281 10.9785C33.5281 11.6296 33.5086 13.9766 33.4695 18.0195C32.7469 18.1432 32.1544 18.2051 31.6922 18.2051C31.2365 18.2051 30.8426 18.1432 30.5105 18.0195C30.5887 16.9388 30.6277 15.0866 30.6277 12.4629V10.1777C30.6277 9.68294 30.4552 9.38997 30.1102 9.29883C29.8758 9.22721 29.56 9.17513 29.1629 9.14258C29.1173 8.94727 29.0945 8.80078 29.0945 8.70312C29.0945 8.59896 29.0978 8.51758 29.1043 8.45898C30.0418 7.93164 31.2007 7.66797 32.5809 7.66797C32.8087 7.66797 32.978 7.67122 33.0887 7.67773C33.2775 8.00326 33.3882 8.3418 33.4207 8.69336C33.4598 9.04492 33.4891 9.38021 33.5086 9.69922C34.381 8.63802 35.1167 7.99349 35.7156 7.76562C36.0021 7.65495 36.3048 7.59961 36.6238 7.59961C37.2749 7.59961 37.7957 7.7819 38.1863 8.14648C38.5835 8.50456 38.782 9.0319 38.782 9.72852C38.782 10.2624 38.5867 10.7083 38.1961 11.0664C37.812 11.418 37.3465 11.5938 36.7996 11.5938C36.6824 11.5938 36.5652 11.584 36.448 11.5645V11.4473Z" fill="#E2FFD7"/>
<path d="M46.0777 11.4473C46.0777 10.334 45.8238 9.77734 45.316 9.77734C44.9449 9.77734 44.5901 9.88477 44.2516 10.0996C43.913 10.3079 43.5484 10.6009 43.1578 10.9785C43.1578 11.6296 43.1383 13.9766 43.0992 18.0195C42.3766 18.1432 41.7841 18.2051 41.3219 18.2051C40.8661 18.2051 40.4723 18.1432 40.1402 18.0195C40.2184 16.9388 40.2574 15.0866 40.2574 12.4629V10.1777C40.2574 9.68294 40.0849 9.38997 39.7398 9.29883C39.5055 9.22721 39.1897 9.17513 38.7926 9.14258C38.747 8.94727 38.7242 8.80078 38.7242 8.70312C38.7242 8.59896 38.7275 8.51758 38.734 8.45898C39.6715 7.93164 40.8303 7.66797 42.2105 7.66797C42.4384 7.66797 42.6077 7.67122 42.7184 7.67773C42.9072 8.00326 43.0178 8.3418 43.0504 8.69336C43.0895 9.04492 43.1188 9.38021 43.1383 9.69922C44.0107 8.63802 44.7464 7.99349 45.3453 7.76562C45.6318 7.65495 45.9345 7.59961 46.2535 7.59961C46.9046 7.59961 47.4254 7.7819 47.816 8.14648C48.2132 8.50456 48.4117 9.0319 48.4117 9.72852C48.4117 10.2624 48.2164 10.7083 47.8258 11.0664C47.4417 11.418 46.9762 11.5938 46.4293 11.5938C46.3121 11.5938 46.1949 11.584 46.0777 11.5645V11.4473Z" fill="#E2FFD7"/>
<path d="M66.0996 11.4473C66.0996 10.334 65.8457 9.77734 65.3379 9.77734C64.9668 9.77734 64.612 9.88477 64.2734 10.0996C63.9349 10.3079 63.5703 10.6009 63.1797 10.9785C63.1797 11.6296 63.1602 13.9766 63.1211 18.0195C62.3984 18.1432 61.806 18.2051 61.3438 18.2051C60.888 18.2051 60.4941 18.1432 60.1621 18.0195C60.2402 16.9388 60.2793 15.0866 60.2793 12.4629V10.1777C60.2793 9.68294 60.1068 9.38997 59.7617 9.29883C59.5273 9.22721 59.2116 9.17513 58.8145 9.14258C58.7689 8.94727 58.7461 8.80078 58.7461 8.70312C58.7461 8.59896 58.7493 8.51758 58.7559 8.45898C59.6934 7.93164 60.8522 7.66797 62.2324 7.66797C62.4603 7.66797 62.6296 7.67122 62.7402 7.67773C62.929 8.00326 63.0397 8.3418 63.0723 8.69336C63.1113 9.04492 63.1406 9.38021 63.1602 9.69922C64.0326 8.63802 64.7682 7.99349 65.3672 7.76562C65.6536 7.65495 65.9564 7.59961 66.2754 7.59961C66.9264 7.59961 67.4473 7.7819 67.8379 8.14648C68.235 8.50456 68.4336 9.0319 68.4336 9.72852C68.4336 10.2624 68.2383 10.7083 67.8477 11.0664C67.4635 11.418 66.998 11.5938 66.4512 11.5938C66.334 11.5938 66.2168 11.584 66.0996 11.5645V11.4473Z" fill="#E2FFD7"/>
<path d="M0 5C0 2.23858 2.23858 0 5 0H18C20.7614 0 23 2.23858 23 5V18C23 20.7614 20.7614 23 18 23H5C2.23858 23 0 20.7614 0 18V5Z" fill="#4ECB71"/>
<path d="M10.1074 3.33203C10.2025 3.33203 10.2702 3.37044 10.3105 3.44727C10.3509 3.52409 10.3711 3.63737 10.3711 3.78711C10.3711 3.93685 10.3607 4.02083 10.3398 4.03906C9.87891 4.01953 9.45638 4.00846 9.07227 4.00586C8.68945 4.00326 8.44401 4.0013 8.33594 4C8.3737 3.6888 8.39258 3.34505 8.39258 2.96875V1.70312C8.39258 1.58984 8.375 1.51693 8.33984 1.48438C8.32422 1.47005 8.30143 1.45768 8.27148 1.44727C8.25195 1.42122 8.24219 1.37956 8.24219 1.32227C8.24219 1.26367 8.24414 1.22266 8.24805 1.19922C8.36393 1.19792 8.52669 1.19661 8.73633 1.19531C8.94596 1.19401 9.10807 1.19271 9.22266 1.19141C9.54427 1.1875 9.91667 1.17708 10.3398 1.16016C10.3607 1.17839 10.3711 1.26237 10.3711 1.41211C10.3711 1.56185 10.3509 1.67513 10.3105 1.75195C10.2702 1.82878 10.1947 1.86719 10.084 1.86719C9.97331 1.86719 9.89583 1.83268 9.85156 1.76367V1.52734C9.47135 1.50911 9.16862 1.5 8.94336 1.5C8.97591 1.64323 8.99219 1.81901 8.99219 2.02734C8.99219 2.04297 8.99219 2.05794 8.99219 2.07227V2.43555L9.83203 2.39258C9.85286 2.41732 9.86328 2.46745 9.86328 2.54297C9.86328 2.61719 9.85677 2.69336 9.84375 2.77148C9.77214 2.7819 9.66992 2.78711 9.53711 2.78711C9.4056 2.78711 9.22396 2.77409 8.99219 2.74805V3.12891C8.99219 3.14323 8.99219 3.1582 8.99219 3.17383C8.99219 3.38346 8.97591 3.55859 8.94336 3.69922C9.16862 3.69922 9.47135 3.6901 9.85156 3.67188V3.43555C9.8737 3.39258 9.92448 3.36198 10.0039 3.34375C10.0352 3.33594 10.0697 3.33203 10.1074 3.33203Z" fill="black"/>
<path d="M10.6719 2.18359C10.6628 2.12109 10.6582 2.08724 10.6582 2.08203C10.6582 2.07031 10.6589 2.05924 10.6602 2.04883C10.8255 1.98633 10.9941 1.95508 11.166 1.95508C11.2259 1.95508 11.3053 1.96094 11.4043 1.97266C11.4342 1.98568 11.4622 2.00586 11.4883 2.0332C11.5143 2.06055 11.5456 2.10547 11.582 2.16797C11.6198 2.22917 11.7122 2.39323 11.8594 2.66016C12.0156 2.36849 12.1276 2.14193 12.1953 1.98047C12.2956 1.95443 12.3919 1.94141 12.4844 1.94141C12.5768 1.94141 12.6621 1.95312 12.7402 1.97656C12.5488 2.28646 12.3086 2.60612 12.0195 2.93555C12.2487 3.32617 12.4928 3.60872 12.752 3.7832C12.752 3.86263 12.7214 3.92904 12.6602 3.98242C12.6003 4.03581 12.5273 4.0625 12.4414 4.0625C12.4297 4.0625 12.4049 4.0612 12.3672 4.05859C12.3307 4.05729 12.2812 4.03906 12.2188 4.00391C12.1576 3.97005 12.1016 3.92904 12.0508 3.88086C12 3.83138 11.9453 3.76562 11.8867 3.68359C11.7982 3.5599 11.6986 3.40104 11.5879 3.20703C11.5592 3.25651 11.5007 3.37305 11.4121 3.55664C11.3249 3.73893 11.2513 3.88672 11.1914 4C11.0911 4.02604 10.9948 4.03906 10.9023 4.03906C10.8112 4.03906 10.7266 4.02734 10.6484 4.00391C10.724 3.86589 10.8522 3.67839 11.0332 3.44141C11.2155 3.20443 11.3496 3.03711 11.4355 2.93945C11.2441 2.60612 11.084 2.38346 10.9551 2.27148C10.8822 2.21289 10.7878 2.18359 10.6719 2.18359Z" fill="black"/>
<path d="M13.2949 5.26758C13.321 5.00846 13.334 4.5599 13.334 3.92188C13.334 3.28255 13.3158 2.78711 13.2793 2.43555C13.2715 2.30143 13.1979 2.22852 13.0586 2.2168C13.0573 2.20898 13.0553 2.19987 13.0527 2.18945C13.0514 2.17773 13.0501 2.16862 13.0488 2.16211C13.0462 2.14388 13.0449 2.12826 13.0449 2.11523C13.0449 2.10221 13.0456 2.09049 13.0469 2.08008C13.2201 2.01367 13.3613 1.97331 13.4707 1.95898C13.5801 1.94336 13.6595 1.93555 13.709 1.93555C13.7598 1.93555 13.791 1.93555 13.8027 1.93555C13.8327 1.98112 13.8529 2.0651 13.8633 2.1875C13.9531 2.10547 14.0579 2.04036 14.1777 1.99219C14.2988 1.94401 14.4115 1.91992 14.5156 1.91992C14.6211 1.91992 14.7122 1.92839 14.7891 1.94531C14.8659 1.96094 14.9414 1.99089 15.0156 2.03516C15.0911 2.07812 15.1562 2.13411 15.2109 2.20312C15.3451 2.3724 15.4121 2.61393 15.4121 2.92773C15.4121 3.07747 15.3887 3.2168 15.3418 3.3457C15.2949 3.47461 15.2331 3.58333 15.1562 3.67188C15.0807 3.76042 14.9941 3.83594 14.8965 3.89844C14.7077 4.01953 14.5195 4.08008 14.332 4.08008C14.1445 4.08008 13.9935 4.0612 13.8789 4.02344C13.8789 4.26953 13.8763 4.68815 13.8711 5.2793C13.7526 5.30013 13.6458 5.31055 13.5508 5.31055C13.457 5.31055 13.3717 5.29622 13.2949 5.26758ZM13.8711 2.39648C13.8763 2.72201 13.8789 3.18034 13.8789 3.77148C13.9596 3.80143 14.0514 3.81641 14.1543 3.81641C14.2585 3.81641 14.3457 3.80013 14.416 3.76758C14.4863 3.73372 14.5521 3.68424 14.6133 3.61914C14.7474 3.47461 14.8145 3.25651 14.8145 2.96484C14.8145 2.66406 14.7526 2.46094 14.6289 2.35547C14.5365 2.27604 14.4219 2.23633 14.2852 2.23633C14.1497 2.23633 14.0117 2.28971 13.8711 2.39648Z" fill="black"/>
<path d="M17.3047 8.60938C17.6901 11.1771 17.9766 12.8802 18.1641 13.7188C18.3516 14.5521 18.5365 15.3464 18.7188 16.1016C18.901 16.8568 19.0469 17.4844 19.1562 17.9844C18.7865 18.1042 18.3411 18.1641 17.8203 18.1641C17.3047 18.1641 16.9401 18.1042 16.7266 17.9844C16.3203 17.2135 15.8359 14.7917 15.2734 10.7188C15.1797 10.0417 15.125 9.65365 15.1094 9.55469C14.1458 11.8359 13.4948 13.875 13.1562 15.6719C13.0312 16.3281 12.9688 16.7891 12.9688 17.0547C12.9688 17.3203 12.9688 17.4766 12.9688 17.5234C12.6458 17.7526 12.2214 17.8672 11.6953 17.8672C11.1172 17.8672 10.763 17.7526 10.6328 17.5234C10.5547 17.2995 10.3672 16.724 10.0703 15.7969C9.27344 13.2969 8.5651 11.1875 7.94531 9.46875L7.91406 9.92188C7.83594 11.5938 7.73438 12.7734 7.60938 13.4609C7.48438 14.1484 7.36979 14.7135 7.26562 15.1562C7.16146 15.5938 7.03646 15.9844 6.89062 16.3281C6.75 16.6667 6.58854 16.9792 6.40625 17.2656C5.98958 17.9323 5.47135 18.2656 4.85156 18.2656C4.33594 18.2656 3.92448 18.0781 3.61719 17.7031C3.47135 17.526 3.39844 17.3359 3.39844 17.1328C3.84115 16.8359 4.2474 16.4297 4.61719 15.9141C4.98698 15.3984 5.28906 14.8568 5.52344 14.2891C5.75781 13.7214 5.96094 13.1146 6.13281 12.4688C6.49219 11.125 6.67188 9.96094 6.67188 8.97656C6.67188 8.65365 6.64844 8.44531 6.60156 8.35156C6.55469 8.2526 6.52083 8.17969 6.5 8.13281C6.47917 8.08073 6.4375 8.03385 6.375 7.99219C6.3125 7.95052 6.27083 7.92448 6.25 7.91406C6.23438 7.90365 6.1875 7.88542 6.10938 7.85938C6.03125 7.82812 5.98698 7.8099 5.97656 7.80469C5.89323 7.70052 5.85156 7.52865 5.85156 7.28906C5.85156 7.04427 5.86198 6.88021 5.88281 6.79688C6.14323 6.74479 6.49219 6.71875 6.92969 6.71875C7.3724 6.71875 7.95052 6.74479 8.66406 6.79688C8.91406 6.84896 9.71354 8.60677 11.0625 12.0703C11.5729 13.3828 11.8932 14.1641 12.0234 14.4141C12.3047 13.4557 13.2057 10.9219 14.7266 6.8125C15.2474 6.77604 15.5885 6.75781 15.75 6.75781C15.9167 6.75781 16.099 6.79167 16.2969 6.85938C16.5 6.92188 16.7005 7.11198 16.8984 7.42969C17.0964 7.7474 17.2318 8.14062 17.3047 8.60938Z" fill="black"/>
</svg>
