<svg width="833" height="705" viewBox="0 0 833 705" fill="none" xmlns="http://www.w3.org/2000/svg">
<path d="M802.027 571.77C823.647 518.144 834.364 459.123 831.551 397.586C821.07 168.323 626.749 -9.03335 397.523 1.44915C168.296 11.9317 -9.03191 206.284 1.44892 435.547C3.62794 483.212 13.7534 528.633 30.4868 570.59L29.7619 571.491C12.8621 529.286 2.63618 483.573 0.442737 435.593C-10.0635 205.774 167.695 10.9507 397.477 0.442808C627.259 -10.0651 822.051 167.722 832.557 397.54C835.386 459.422 824.566 518.767 802.755 572.659L802.027 571.77Z" fill="#1353FE" fill-opacity="0.21"/>
<path d="M758.054 538.331C777.397 493.007 787.053 443.151 784.678 391.199C775.83 197.645 603.335 48.2979 399.4 57.6238C195.465 66.9498 37.3167 231.417 46.1651 424.971C48.0047 465.212 56.9179 503.543 71.7165 538.933L71.0698 539.696C56.1236 504.095 47.1217 465.52 45.2699 425.012C36.4 230.989 194.932 66.1228 399.361 56.7742C603.791 47.4257 776.704 197.135 785.574 391.158C787.962 443.402 778.213 493.532 758.699 539.08L758.054 538.331Z" fill="#1353FE" fill-opacity="0.21"/>
<path d="M714.034 503.114C731.101 466.094 739.696 425.403 737.759 383.036C730.543 225.191 579.874 103.855 401.23 112.025C222.586 120.194 83.6161 254.775 90.8321 412.62C92.3323 445.437 100.033 476.675 112.897 505.5L112.329 506.124C99.3361 477.128 91.5581 445.69 90.0479 412.656C82.8145 254.428 222.121 119.521 401.198 111.332C580.276 103.143 731.31 224.773 738.544 383C740.491 425.605 731.814 466.519 714.597 503.724L714.034 503.114Z" fill="#1353FE" fill-opacity="0.21"/>
<path d="M685.183 430.924C685.183 582.292 562.513 705 411.192 705C259.87 705 137.2 582.292 137.2 430.924C137.2 279.556 259.87 156.848 411.192 156.848C562.513 156.848 685.183 279.556 685.183 430.924Z" fill="#12006C" fill-opacity="0.04"/>
</svg>
